PathFileType	4	(X/Y/Z)	Patient4_TMGait_0pt4_03_left_27.trc.trc
DataRate	CameraRate	NumFrames	NumMarkers	Units	OrigDataRate	OrigDataStartFrame	OrigNumFrames
76.086956521739	76.086956521739	5	33	mm	76.086956521739	53	       141
Frame#	Time	Sacral			L.Shoulder			Chest			R.Shoulder			Neck			R.ASIS			L.ASIS			R.Thigh.Superior			R.Thigh.Lateral			R.Thigh.Inferior			R.Patella			L.Thigh.Superior			L.Thigh.Lateral			L.Thigh.Inferior			L.Patella			L.Shank.Superior			L.Shank.Lateral			L.Shank.Inferior			R.Shank.Superior			R.Shank.Lateral			R.Shank.Inferior			R.Heel			R.Midfoot.Superior			R.Midfoot.Lateral			R.Toe			L.Heel			L.Midfoot.Lateral			L.Midfoot.Superior			L.Toe			L.Elbow			L.Wrist			R.Elbow			R.Wrist			
		X1	Y1	Z1	X2	Y2	Z2	X3	Y3	Z3	X4	Y4	Z4	X5	Y5	Z5	X6	Y6	Z6	X7	Y7	Z7	X8	Y8	Z8	X9	Y9	Z9	X10	Y10	Z10	X11	Y11	Z11	X12	Y12	Z12	X13	Y13	Z13	X14	Y14	Z14	X15	Y15	Z15	X16	Y16	Z16	X17	Y17	Z17	X18	Y18	Z18	X19	Y19	Z19	X20	Y20	Z20	X21	Y21	Z21	X22	Y22	Z22	X23	Y23	Z23	X24	Y24	Z24	X25	Y25	Z25	X26	Y26	Z26	X27	Y27	Z27	X28	Y28	Z28	X29	Y29	Z29	X30	Y30	Z30	X31	Y31	Z31	X32	Y32	Z32	X33	Y33	Z33	

53	36.243428571429	831.350906620655	1008.288022519611	414.387509315236	1011.654441598608	1427.456362215738	206.724559888215	1119.217967931637	1364.112643923661	366.775677570031	1043.772611744107	1444.515881569412	541.619226595355	1003.734704387510	1496.588494855938	361.498872637797	1063.969132479463	948.246337737057	524.597828619865	1042.489697501312	961.207448801194	251.283739358568	1144.351509616455	775.233042646897	495.445957249831	1105.876594582102	654.899199141811	572.956369341432	1193.959339644688	614.736723650431	492.898853794292	1211.864768291436	502.733072598419	516.369104625077	1096.416000015418	753.417203084597	274.384311535753	1007.122501735940	636.123444043989	220.321495996184	1097.191578257855	560.862051267262	277.283673162454	1099.165243201757	491.319996274051	286.358632913267	1071.813672838092	418.180383536523	279.816303983999	979.179898000650	304.236534147921	233.881739328927	1033.028309520928	192.243920950069	301.122269063695	1136.245589657895	427.939630165798	525.363611566634	1015.988617931001	389.250089580227	588.803442426432	1000.422076731852	279.645053602387	541.269811719894	800.888574158354	222.481254767849	518.439944109128	967.270275948319	155.766052861630	555.904458415056	858.039804255598	157.172131282494	588.506331538405	1027.419662485222	37.904150197205	575.874596462425	908.149962341102	38.363366237986	352.270302217207	975.498749223176	35.170119663608	265.833012137670	1060.549828461802	96.145009189546	287.664350550479	1186.780643407911	44.204958664649	248.235139511190	972.883940260867	1087.783835134881	66.893268594992	1130.196606907383	875.957012136782	59.855712935611	1037.339743430010	1094.359749704152	664.094036098189	1176.351246151987	876.165858287251	631.695423311221	
54	36.256571428571	830.580991844361	1008.999222819294	412.084803989966	1013.762162390519	1428.221278995613	205.848691286543	1119.231144827355	1364.618380132816	367.164900139182	1041.767909660799	1444.901368487090	541.165527721551	1004.060380608740	1497.211696216920	360.724497128607	1062.265781279929	949.618257185944	524.716771119891	1043.045930138688	961.352688820883	251.110003335909	1144.580555297243	778.581750775113	495.829152087211	1107.848007812051	657.998719248809	573.591216730013	1196.650119871218	618.967525261571	493.730364177179	1216.590518146372	507.591622696316	517.624047497419	1095.232748017611	752.805373937348	275.045320246905	1005.204983536332	636.240524895103	220.177671455824	1094.173584535611	560.210372078229	277.806594857204	1095.458814785486	490.789737510488	286.977333924039	1067.892306942791	417.861789283666	280.163690510564	975.008491199161	304.257380896493	233.945713571892	1028.233331883800	192.085593533691	301.322842518131	1142.825839336006	431.214275974289	526.514962927821	1023.504096950357	389.165318448068	589.470532023676	1011.315766864142	279.058760489092	542.117585221935	813.721576016978	216.002860994927	518.739290930741	981.879205380612	154.308955115597	556.853817075543	872.488723781412	152.188769028515	588.795626980544	1045.164580420854	38.100795904406	576.380366968117	902.793025401169	38.353262630415	352.244763684016	970.200180513310	35.176319191840	265.813968602107	1055.242684903018	96.107548819395	287.739706107788	1181.504333596647	44.134345990649	248.237764852506	975.945849000869	1089.521762016751	63.902485130203	1137.855289856874	881.254525894199	58.640295148955	1028.924273162633	1094.582737855414	662.947361509047	1158.511591779112	869.106274158884	638.958238610724	
55	36.269714285714	829.901319603273	1009.716193410576	409.883712156853	1015.962883585148	1429.000463068612	205.167611153635	1119.314873472229	1365.099435716880	367.709282561354	1039.848181703347	1445.248486457672	540.850389707715	1004.410408716789	1497.817998592432	360.141600555822	1060.587193956931	950.909145894025	524.929140462282	1043.661750993591	961.474962264333	251.055955753905	1144.497728826825	781.557178558567	496.401941824484	1109.219072172286	660.778124936451	574.351395458646	1198.572118878822	622.680708200739	494.661703768012	1220.406640257173	512.176211925166	519.008448079105	1093.956434631403	752.178477446455	275.965270004084	1003.243794397063	636.379158865668	220.056038166578	1091.020240147358	559.559328066979	278.410343901133	1091.577073996491	490.264798779721	287.637360980914	1063.829554510400	417.561171019123	280.524712219012	970.739707385762	304.269055111294	234.014174537439	1023.384845743902	191.942270365027	301.534912155566	1148.877320140664	434.134502424236	527.843984641830	1030.934638619424	388.075153218414	590.430748440524	1022.741501282521	277.529344807485	543.253548321249	827.614744159994	207.454185392361	519.452857687263	997.779239263836	151.918304151520	558.167014590849	888.378618442037	145.676285141639	589.571953924755	1064.904081952963	38.032225510410	577.430408363592	897.430109327426	38.335555860848	352.227337297371	964.893713891257	35.176410322667	265.799026496636	1049.929366765638	96.071733524594	287.819801894548	1176.221248507968	44.079845656723	248.245324492368	978.898739006069	1091.293464630386	61.174398785910	1145.353390043863	886.725433928925	57.737388629981	1020.798053480226	1094.989963771287	662.043825591489	1140.696841877203	863.115945082998	646.111487465764	
56	36.282857142857	829.304899803595	1010.415050740531	407.796878808426	1018.232348862257	1429.744015887364	204.685892573286	1119.472092607378	1365.522100183090	368.402185935678	1038.044957366413	1445.541067384327	540.674519210786	1004.793692978542	1498.377154400412	359.744735337966	1058.939993317756	952.058681439302	525.219829826555	1044.330252321219	961.570448903129	251.113226283918	1144.096443898055	784.076172907662	497.132588866363	1109.973819266127	663.157978072263	575.214899724440	1199.699560118395	625.771612694992	495.663486473016	1223.277771828405	516.389004179180	520.469363174264	1092.608572325157	751.535079504998	277.065179298297	1001.239250964271	636.528001337964	219.930531113282	1087.747415582041	558.907694667295	279.042452197127	1087.543540609730	489.743869122498	288.294973416707	1059.647651173116	417.271178933889	280.870042360918	966.390143901596	304.265081042669	234.067648269121	1018.495601262148	191.810642218905	301.746673268357	1154.356995957316	436.662993970313	529.313580016497	1038.305714765648	386.045927996873	591.687250140072	1034.666420966772	275.186682447193	544.681889376078	842.640094791950	197.130453029317	520.634976636651	1014.883185693127	148.787899838377	559.829324579846	905.711055773518	137.934626216530	590.879132802262	1086.426023034997	37.877706144912	579.010522580872	892.066275325378	38.310601793622	352.215431369030	959.581455661102	35.169360084086	265.786064221997	1044.612984909467	96.038292688080	287.899916178032	1170.932583284183	44.041146056883	248.256615120763	981.795398893134	1093.032944757636	58.706638376916	1152.703892899920	892.279316527846	57.094064522993	1012.973438793228	1095.561670291660	661.414511549798	1123.101211053072	858.209663475850	653.096062398952	
57	36.296000000000	828.790978833008	1011.074378673092	405.840764605465	1020.537434056127	1430.409141258208	204.408324784641	1119.703177076013	1365.859936343429	369.235567614641	1036.390741117599	1445.769515097595	540.640489522570	1005.217264299287	1498.864759966308	359.530359617018	1057.339871686851	953.018769310292	525.576421270346	1045.040676984863	961.635764640484	251.272936478666	1143.366700736203	786.062529953493	497.987473168714	1110.083796214221	665.072006289759	576.163507976262	1199.999266726967	628.151897450970	496.711378105244	1225.166520030567	520.144373125340	521.949804374343	1091.217129164596	750.871597041096	278.261710821385	999.194265697312	636.675464274692	219.786107054837	1084.375246526168	558.253501313829	279.660688588813	1083.387491660766	489.225846347746	288.916826454378	1055.373215285246	416.985320416272	281.178971480544	961.978282743800	304.241664664790	234.093082681681	1013.578213788359	191.687132393185	301.949027715506	1159.216742320161	438.780238841302	530.878888851558	1045.640548706263	383.172628787355	593.239848664979	1047.039616090933	272.192322391504	546.389810152165	858.851450077010	185.357178325887	522.327799224654	1033.085573531189	145.158660563644	561.807372548109	924.471414246466	129.293120474741	592.733837181420	1109.497172473015	37.880934945224	581.054460977355	886.706393808286	38.279150100869	352.206252940056	954.265559263222	35.154794838494	265.773449350493	1039.295762682974	96.007413797536	287.976786817440	1165.639490299647	44.016826542506	248.270811022771	984.692642614441	1094.678928277102	56.502443399238	1159.926996646714	897.828192257730	56.657623593484	1005.444929648113	1096.282968117866	661.081870940101	1105.901290085426	854.365047028559	659.866250719324	
